<?xml version="1.0" standalone="no"?>
<!DOCTYPE svg PUBLIC "-//W3C//DTD SVG 20010904//EN"
 "http://www.w3.org/TR/2001/REC-SVG-20010904/DTD/svg10.dtd">
<svg version="1.0" xmlns="http://www.w3.org/2000/svg"
 width="1280.000000pt" height="1066.000000pt" viewBox="0 0 1280.000000 1066.000000"
 preserveAspectRatio="xMidYMid meet">
<metadata>
Created by potrace 1.15, written by Peter Selinger 2001-2017
</metadata>
<g transform="translate(0.000000,1066.000000) scale(0.100000,-0.100000)"
fill="#000000" stroke="none">
<path d="M6740 10654 c-19 -2 -78 -9 -130 -15 -229 -26 -456 -85 -680 -175
-900 -366 -1532 -1196 -1645 -2163 -19 -161 -19 -451 0 -612 88 -758 501
-1446 1126 -1881 384 -267 853 -435 1319 -471 25 -2 -967 -4 -2205 -4 -1237 0
-2232 2 -2210 4 308 27 633 131 900 288 485 285 851 773 985 1314 101 405 86
807 -46 1201 -211 632 -712 1133 -1349 1346 -216 72 -421 104 -672 104 -326 0
-616 -63 -899 -195 -934 -436 -1422 -1470 -1164 -2468 155 -601 562 -1099
1125 -1377 222 -109 477 -184 716 -209 56 -5 -171 -9 -676 -10 -631 -1 -771
-4 -823 -16 -192 -46 -351 -205 -397 -397 -22 -95 -22 -4411 0 -4506 46 -192
205 -351 397 -397 55 -13 610 -15 4388 -15 4770 0 4386 -5 4514 62 78 41 183
146 224 224 65 124 62 51 62 1552 l0 1362 573 0 c716 0 881 -11 1102 -75 274
-80 455 -252 455 -433 0 -233 131 -434 338 -521 191 -80 420 -33 571 118 76
75 123 158 146 252 22 95 22 2282 0 2377 -34 143 -145 286 -273 351 -244 123
-539 48 -688 -175 -53 -82 -81 -171 -92 -296 -11 -136 -39 -198 -129 -285
-106 -103 -284 -178 -514 -217 -160 -27 -377 -35 -946 -36 l-543 0 0 298 c0
329 -6 375 -61 484 -41 82 -145 186 -227 227 -124 62 -88 61 -1202 62 -589 1
-979 5 -930 10 324 31 625 116 926 264 539 265 954 679 1219 1220 368 747 367
1603 -2 2347 -263 531 -677 946 -1210 1212 -255 127 -514 207 -818 252 -95 14
-481 27 -555 18z m462 -1083 c612 -105 1120 -568 1278 -1166 67 -256 67 -564
0 -820 -126 -478 -491 -890 -951 -1073 -202 -80 -374 -112 -601 -112 -1016 0
-1773 941 -1557 1937 122 564 545 1019 1104 1190 212 64 503 82 727 44z
m-4830 -1071 c306 -68 571 -277 714 -565 83 -167 107 -272 108 -470 0 -137 -3
-173 -23 -249 -51 -195 -130 -340 -263 -481 -168 -178 -374 -287 -610 -325
-110 -18 -321 -8 -425 19 -400 104 -700 420 -784 824 -28 134 -23 349 11 472
52 192 139 345 274 481 224 224 493 331 801 318 61 -2 149 -13 197 -24z"/>
</g>
</svg>
